# xmcd
#
# Track frame offsets:
#	150
#	13603
#	29801
#	47874
#	63911
#	75726
#	91493
#	107975
#	120315
#	139754
#	154596
#	165843
#	185630
#	202453
#	221047
#	238483
#	259185
#
# Disc length: 3739 seconds
#
# Revision: 1
# Processed by: cddbd v1.5.2PL0 Copyright (c) Steve Scherf et al.
# Submitted via: audiograbber 1.83.01
#
DISCID=fa0e9911
DTITLE=Petr Spaleny - Nejvetsi hity
DYEAR=1998
DGENRE=Country
TTITLE0=Plakalo Baby
TTITLE1=Kdybych ja byl kovarem
TTITLE2=Podivny hry lidi
TTITLE3=Trapim se trapim
TTITLE4=Mne se zda
TTITLE5=Josefina
TTITLE6=Je to trest
TTITLE7=Peggy
TTITLE8=Obycejny muz
TTITLE9=Kdyz ji potkas
TTITLE10=Motel Nonstop
TTITLE11=Lady
TTITLE12=Hrac
TTITLE13=Az me andele
TTITLE14=Ted k sobe lezime zady
TTITLE15=Nevyzpytatelna cesta
TTITLE16=Diky...
EXTD=
EXTT0=
EXTT1=
EXTT2=
EXTT3=
EXTT4=
EXTT5=
EXTT6=
EXTT7=
EXTT8=
EXTT9=
EXTT10=
EXTT11=
EXTT12=
EXTT13=
EXTT14=
EXTT15=
EXTT16=
PLAYORDER=
